<svg xmlns="http://www.w3.org/2000/svg" version="1.1" xmlns:xlink="http://www.w3.org/1999/xlink" xmlns:svgjs="http://svgjs.dev/svgjs" width="1500" height="935" viewBox="0 0 1500 935"><g transform="matrix(1,0,0,1,-0.9090909090909918,0.3785425101214628)"><svg viewBox="0 0 396 247" data-background-color="#ffffff" preserveAspectRatio="xMidYMid meet" height="935" width="1500" xmlns="http://www.w3.org/2000/svg" xmlns:xlink="http://www.w3.org/1999/xlink"><g id="tight-bounds" transform="matrix(1,0,0,1,0.2400000000000091,-0.09999999999999432)"><svg viewBox="0 0 395.52 247.2" height="247.2" width="395.52"><g><svg></svg></g><g><svg viewBox="0 0 395.52 247.2" height="247.2" width="395.52"><g transform="matrix(1,0,0,1,75.54432,94.16648844300747)"><svg viewBox="0 0 244.43135999999998 58.86702311398507" height="58.86702311398507" width="244.43135999999998"><g><svg viewBox="0 0 244.43135999999998 58.86702311398507" height="58.86702311398507" width="244.43135999999998"><g><svg viewBox="0 0 244.43135999999998 58.86702311398507" height="58.86702311398507" width="244.43135999999998"><g><svg viewBox="0 0 244.43135999999998 58.86702311398507" height="58.86702311398507" width="244.43135999999998"><g id="textblocktransform"><svg viewBox="0 0 244.43135999999998 58.86702311398507" height="58.86702311398507" width="244.43135999999998" id="textblock"><g><svg viewBox="0 0 244.43135999999998 31.750059390221903" height="31.750059390221903" width="244.43135999999998"><g transform="matrix(1,0,0,1,0,0)"><svg width="244.43135999999998" viewBox="-1.65 -31.25 277.12 36" height="31.750059390221903" data-palette-color="#ff0000"><path d="M2.55 0.65L2.55 0.65Q2 0.65 1.55 0.5L1.55 0.5Q-1.65-0.4-1.65-3.1L-1.65-3.1Q-1.65-6.6 2.75-11.2 7.15-15.8 10.65-15.8L10.65-15.8Q11.8-15.8 12.53-15.18 13.25-14.55 13.25-13.65L13.25-13.65Q13.25-10.85 9.03-8.3 4.8-5.75 2.15-5.75L2.15-5.75Q1.75-5.75 1.45-5.85L1.45-5.85Q0.7-4.5 0.7-3L0.7-3Q0.7-0.4 3.18-0.4 5.65-0.4 9.6-3.75L9.6-3.75Q12.65-6.2 14.8-8.95L14.8-8.95Q15.25-9.55 15.58-9.55 15.9-9.55 15.9-9.25 15.9-8.95 15.5-8.4L15.5-8.4Q12.8-4.85 9-2.1 5.2 0.65 2.55 0.65ZM12-13.75L12-13.75Q12-14.35 10.73-14.35 9.45-14.35 7.1-12.4L7.1-12.4Q3.95-9.8 2.2-6.95L2.2-6.95Q2.5-6.85 2.85-6.85L2.85-6.85Q4.75-6.85 7.93-8.88 11.1-10.9 11.9-13.3L11.9-13.3Q12-13.55 12-13.75ZM16.65 0.65L16.65 0.65Q16.1 0.65 15.65 0.5L15.65 0.5Q12.45-0.4 12.45-3.1L12.45-3.1Q12.45-6.6 16.85-11.2 21.25-15.8 24.75-15.8L24.75-15.8Q25.9-15.8 26.62-15.18 27.35-14.55 27.35-13.48 27.35-12.4 26.7-11.23 26.05-10.05 24.75-10.05 23.45-10.05 23.45-10.85L23.45-10.85Q23.45-11.4 24.12-12.53 24.8-13.65 24.8-13.73 24.8-13.8 24.65-13.8L24.65-13.8Q23.25-13.65 20.82-11.8 18.4-9.95 17.5-8.7L17.5-8.7 15.55-5.85Q15.05-5.05 14.82-3.95 14.6-2.85 14.6-2.3 14.6-1.75 15.22-1.05 15.85-0.35 17-0.35L17-0.35Q19.5-0.35 23.2-3.28 26.9-6.2 28.9-8.85L28.9-8.85Q29.15-9.15 29.5-9.15 29.85-9.15 29.85-8.95 29.85-8.75 29.6-8.45L29.6-8.45Q26.85-4.8 23.02-2.08 19.2 0.65 16.65 0.65ZM40.05-10.6L40.05-10.6Q40.05-8.85 36.7-4.75L36.7-4.75Q32.75 0.1 29.95 0.1L29.95 0.1 29.14 0.1Q27.85 0.1 27.1-1.25L27.1-1.25Q26.5-2.2 26.5-3.35L26.5-3.35Q26.5-6.35 30.87-11.78 35.25-17.2 37.95-17.2L37.95-17.2Q40.5-17.2 40.5-14.5L40.5-14.5Q40.5-13.8 40.25-12.7L40.25-12.7Q40.3-12.55 41.2-12.55 42.09-12.55 43.95-13.5L43.95-13.5Q43.9-12.65 40-11.05L40-11.05Q40.05-10.85 40.05-10.6ZM36.8-13.2L36.8-13.2Q35.09-13.2 31.97-9.2 28.85-5.2 28.85-3.3 28.85-1.4 30.05-1.4L30.05-1.4Q32.2-1.4 35.5-5.3 38.8-9.2 38.8-10.9L38.8-10.9Q38-11.35 36.8-13.2ZM64.94-0.6L64.94-0.6Q61.54-0.6 61.54-3.75L61.54-3.75Q61.54-5.55 63.14-8.68 64.74-11.8 66.49-13.95L66.49-13.95Q63.39-12.45 59.34-8.53 55.29-4.6 53.69-0.3L53.69-0.3Q53.44 0.1 52.84 0.1L52.84 0.1Q51.64 0.1 51.64-1.25L51.64-1.25Q52.14-4 53.89-7.55L53.89-7.55Q54.44-8.7 57.14-14.25L57.14-14.25Q53.24-11.7 50.52-8.78 47.79-5.85 45.47-2.9 43.14 0.05 42.84 0.05L42.84 0.05Q42.19 0.05 41.72-0.55 41.24-1.15 41.24-1.75L41.24-1.75Q41.24-2.65 43.84-8.35L43.84-8.35 40.84-5.2Q39.74-4.1 39.47-4.1 39.19-4.1 39.19-4.42 39.19-4.75 39.59-5.15L39.59-5.15Q41.44-7 42.89-8.85 44.34-10.7 47.69-15.45L47.69-15.45Q48.24-16.2 49.24-16.2 50.24-16.2 50.24-15.25L50.24-15.25Q50.24-14.9 47.59-10.38 44.94-5.85 44.64-4.7L44.64-4.7Q46.69-6.95 50.79-10.75L50.79-10.75Q56.94-16.45 58.89-16.45L58.89-16.45Q59.49-16.45 59.99-16.1 60.49-15.75 60.49-15.33 60.49-14.9 58.54-11.55L58.54-11.55Q56.64-8.1 56.44-7.45L56.44-7.45Q61.99-12.1 61.99-12.15L61.99-12.15Q66.69-15.8 68.74-15.8L68.74-15.8Q69.34-15.8 69.87-15.43 70.39-15.05 70.39-14.55L70.39-14.55Q70.39-14.45 67.14-10.33 63.89-6.2 63.49-3.55L63.49-3.55Q63.39-2.65 63.84-2.2 64.29-1.75 65.47-1.75 66.64-1.75 68.92-3.38 71.19-5 73.54-7.75L73.54-7.75Q74.44-8.75 74.77-8.75 75.09-8.75 75.09-8.5L75.09-8.5Q75.09-8.15 74.64-7.7L74.64-7.7Q72.19-4.75 69.37-2.68 66.54-0.6 64.94-0.6ZM96.49-0.6L96.49-0.6Q93.09-0.6 93.09-3.75L93.09-3.75Q93.09-5.55 94.69-8.68 96.29-11.8 98.04-13.95L98.04-13.95Q94.94-12.45 90.89-8.53 86.84-4.6 85.24-0.3L85.24-0.3Q84.99 0.1 84.39 0.1L84.39 0.1Q83.19 0.1 83.19-1.25L83.19-1.25Q83.69-4 85.44-7.55L85.44-7.55Q85.99-8.7 88.69-14.25L88.69-14.25Q84.79-11.7 82.06-8.78 79.34-5.85 77.02-2.9 74.69 0.05 74.39 0.05L74.39 0.05Q73.74 0.05 73.27-0.55 72.79-1.15 72.79-1.75L72.79-1.75Q72.79-2.65 75.39-8.35L75.39-8.35 72.39-5.2Q71.29-4.1 71.02-4.1 70.74-4.1 70.74-4.42 70.74-4.75 71.14-5.15L71.14-5.15Q72.99-7 74.44-8.85 75.89-10.7 79.24-15.45L79.24-15.45Q79.79-16.2 80.79-16.2 81.79-16.2 81.79-15.25L81.79-15.25Q81.79-14.9 79.14-10.38 76.49-5.85 76.19-4.7L76.19-4.7Q78.24-6.95 82.34-10.75L82.34-10.75Q88.49-16.45 90.44-16.45L90.44-16.45Q91.04-16.45 91.54-16.1 92.04-15.75 92.04-15.33 92.04-14.9 90.09-11.55L90.09-11.55Q88.19-8.1 87.99-7.45L87.99-7.45Q93.54-12.1 93.54-12.15L93.54-12.15Q98.24-15.8 100.29-15.8L100.29-15.8Q100.89-15.8 101.42-15.43 101.94-15.05 101.94-14.55L101.94-14.55Q101.94-14.45 98.69-10.33 95.44-6.2 95.04-3.55L95.04-3.55Q94.94-2.65 95.39-2.2 95.84-1.75 97.02-1.75 98.19-1.75 100.47-3.38 102.74-5 105.09-7.75L105.09-7.75Q105.99-8.75 106.31-8.75 106.64-8.75 106.64-8.5L106.64-8.5Q106.64-8.15 106.19-7.7L106.19-7.7Q103.74-4.75 100.92-2.68 98.09-0.6 96.49-0.6ZM106.69 0.65L106.69 0.65Q106.14 0.65 105.69 0.5L105.69 0.5Q102.49-0.4 102.49-3.1L102.49-3.1Q102.49-6.6 106.89-11.2 111.29-15.8 114.79-15.8L114.79-15.8Q115.94-15.8 116.66-15.18 117.39-14.55 117.39-13.65L117.39-13.65Q117.39-10.85 113.16-8.3 108.94-5.75 106.29-5.75L106.29-5.75Q105.89-5.75 105.59-5.85L105.59-5.85Q104.84-4.5 104.84-3L104.84-3Q104.84-0.4 107.31-0.4 109.79-0.4 113.74-3.75L113.74-3.75Q116.79-6.2 118.94-8.95L118.94-8.95Q119.39-9.55 119.71-9.55 120.04-9.55 120.04-9.25 120.04-8.95 119.64-8.4L119.64-8.4Q116.94-4.85 113.14-2.1 109.34 0.65 106.69 0.65ZM116.14-13.75L116.14-13.75Q116.14-14.35 114.86-14.35 113.59-14.35 111.24-12.4L111.24-12.4Q108.09-9.8 106.34-6.95L106.34-6.95Q106.64-6.85 106.99-6.85L106.99-6.85Q108.89-6.85 112.06-8.88 115.24-10.9 116.04-13.3L116.04-13.3Q116.14-13.55 116.14-13.75ZM127.19 0.25L127.19 0.25Q123.44 0.25 123.44-3.9L123.44-3.9Q123.44-6 124.54-8.5 125.64-11 126.94-12.7L126.94-12.7Q126.69-12.65 126.29-12.65L126.29-12.65Q125.09-12.65 124.29-14.35L124.29-14.35 120.59-9.55Q117.49-5.7 116.99-5.7L116.99-5.7Q116.74-5.7 116.74-5.9L116.74-5.9Q116.74-6.4 117.59-7.35L117.59-7.35Q121.94-12.4 123.74-15.9L123.74-15.9Q124.89-20.25 126.64-20.25L126.64-20.25Q127.79-20.25 127.79-19.25 127.79-18.25 126.54-16.7L126.54-16.7 125.34-15.1Q125.34-14.05 126.89-14.05L126.89-14.05Q127.79-14.05 128.89-14.7L128.89-14.7 130.19-15.5Q130.29-15.55 130.69-15.55 131.09-15.55 131.54-15.05 131.99-14.55 131.84-14.15L131.84-14.15 128.39-9.8Q125.19-5.7 125.19-3.33 125.19-0.95 127.39-0.95L127.39-0.95Q129.69-0.95 133.04-3.4L133.04-3.4Q135.04-4.85 136.69-6.65L136.69-6.65Q138.24-8.45 138.39-8.45L138.39-8.45Q138.74-8.45 138.74-8.08 138.74-7.7 138.29-7.2L138.29-7.2 136.69-5.4Q135.34-4 133.69-2.7L133.69-2.7Q129.74 0.25 127.19 0.25ZM140.48 0.65L140.48 0.65Q139.93 0.65 139.48 0.5L139.48 0.5Q136.28-0.4 136.28-3.1L136.28-3.1Q136.28-6.6 140.68-11.2 145.08-15.8 148.58-15.8L148.58-15.8Q149.73-15.8 150.46-15.18 151.18-14.55 151.18-13.48 151.18-12.4 150.53-11.23 149.88-10.05 148.58-10.05 147.28-10.05 147.28-10.85L147.28-10.85Q147.28-11.4 147.96-12.53 148.63-13.65 148.63-13.73 148.63-13.8 148.48-13.8L148.48-13.8Q147.08-13.65 144.66-11.8 142.23-9.95 141.33-8.7L141.33-8.7 139.38-5.85Q138.88-5.05 138.66-3.95 138.43-2.85 138.43-2.3 138.43-1.75 139.06-1.05 139.68-0.35 140.83-0.35L140.83-0.35Q143.33-0.35 147.03-3.28 150.73-6.2 152.73-8.85L152.73-8.85Q152.98-9.15 153.33-9.15 153.68-9.15 153.68-8.95 153.68-8.75 153.43-8.45L153.43-8.45Q150.68-4.8 146.86-2.08 143.03 0.65 140.48 0.65ZM153.38 0.65L153.38 0.65Q152.83 0.65 152.38 0.5L152.38 0.5Q149.18-0.4 149.18-3.1L149.18-3.1Q149.18-6.6 153.58-11.2 157.98-15.8 161.48-15.8L161.48-15.8Q162.63-15.8 163.36-15.18 164.08-14.55 164.08-13.65L164.08-13.65Q164.08-10.85 159.86-8.3 155.63-5.75 152.98-5.75L152.98-5.75Q152.58-5.75 152.28-5.85L152.28-5.85Q151.53-4.5 151.53-3L151.53-3Q151.53-0.4 154.01-0.4 156.48-0.4 160.43-3.75L160.43-3.75Q163.48-6.2 165.63-8.95L165.63-8.95Q166.08-9.55 166.41-9.55 166.73-9.55 166.73-9.25 166.73-8.95 166.33-8.4L166.33-8.4Q163.63-4.85 159.83-2.1 156.03 0.65 153.38 0.65ZM162.83-13.75L162.83-13.75Q162.83-14.35 161.56-14.35 160.28-14.35 157.93-12.4L157.93-12.4Q154.78-9.8 153.03-6.95L153.03-6.95Q153.33-6.85 153.68-6.85L153.68-6.85Q155.58-6.85 158.76-8.88 161.93-10.9 162.73-13.3L162.73-13.3Q162.83-13.55 162.83-13.75ZM213.13-21.4L213.13-21.4Q211.28-20.65 209.95-20.65 208.63-20.65 208.63-21.2L208.63-21.2Q208.63-21.55 210.1-21.6 211.58-21.65 212.23-21.95L212.23-21.95Q214.13-22.95 214.13-24.9L214.13-24.9Q214.13-25.9 213.58-27L213.58-27Q211.98-29.85 205.83-29.85L205.83-29.85Q202.28-29.85 198.73-28.78 195.18-27.7 192.78-25.48 190.38-23.25 190.38-21.35L190.38-21.35Q190.38-18.45 196.13-17.1L196.13-17.1 202.03-16Q205.58-15.35 207.33-14.2L207.33-14.2Q209.63-12.8 209.63-10.2L209.63-10.2Q209.63-9.15 209.28-7.95L209.28-7.95Q207.68-2.55 201.03 0.3L201.03 0.3Q195.48 2.75 187.93 2.75L187.93 2.75Q185.78 2.75 184.18 2.55L184.18 2.55Q185.78 3.45 188.38 4.1L188.38 4.1Q188.58 4.15 188.58 4.3L188.58 4.3Q188.58 4.75 187.53 4.75L187.53 4.75Q185.48 4.75 182.43 2.3L182.43 2.3Q178.28 1.65 176.23 0L176.23 0Q174.93-1.05 173.83-3.1 172.73-5.15 172.73-6.8 172.73-8.45 173.38-9.55L173.38-9.55Q174.88-12.2 177.18-12.2L177.18-12.2Q178.93-12.2 179.23-9.25L179.23-9.25Q179.93-3.55 180.18-2.75L180.18-2.75Q180.93-0.3 182.73 1.4L182.73 1.4Q184.83 1.85 187.28 1.85L187.28 1.85Q192.68 1.85 197.88-0.3 203.08-2.45 205.38-6.4L205.38-6.4Q206.33-7.95 206.33-9.15L206.33-9.15Q206.33-11.5 202.18-12.8L202.18-12.8 193.38-14.8Q190.68-15.45 189.05-16.95 187.43-18.45 187.43-20.4L187.43-20.4Q187.43-23.4 191.18-26.4L191.18-26.4Q194.03-28.7 198.15-29.98 202.28-31.25 206.25-31.25 210.23-31.25 212.83-30.1L212.83-30.1Q216.18-28.55 216.18-25.58 216.18-22.6 213.13-21.4ZM180.93 0.9L180.93 0.9Q178.03-2.3 177.23-7.85L177.23-7.85Q176.78-11 176.38-11 175.98-11 175.63-10.78 175.28-10.55 174.93-9.8 174.58-9.05 174.58-7.85L174.58-7.85Q174.58-4 177.28-1.25L177.28-1.25Q178.63 0.15 180.93 0.9ZM224.02-16.1L224.02-16.1 231.22-16.2Q231.37-16.1 231.37-16.05L231.37-16.05Q231.37-15.6 225.15-14.8 218.92-14 218.42-13.85L218.42-13.85Q217.47-13 214.92-8.78 212.37-4.55 212.37-2.6L212.37-2.6Q212.37-0.75 214.92-0.75L214.92-0.75Q216.12-0.75 218.07-1.5 220.02-2.25 221.07-2.9L221.07-2.9Q223.87-4.65 227.07-8.05L227.07-8.05Q227.77-8.75 228.02-8.75L228.02-8.75Q228.17-8.75 228.17-8.45 228.17-8.15 227.42-7.25L227.42-7.25Q224.82-4.05 221.57-2.1L221.57-2.1Q217.67 0.3 214.12 0.3L214.12 0.3Q212.57 0.3 211.6-0.38 210.62-1.05 210.62-3.1 210.62-5.15 212.42-8.72 214.22-12.3 215.17-14.05L215.17-14.05Q214.47-13.9 213.97-13.9L213.97-13.9Q212.52-13.9 212.52-15.05L212.52-15.05Q212.52-15.9 213.72-16.25L213.72-16.25Q213.87-16.25 214.17-16.3L214.17-16.3 217.07-16.3Q217.97-17.45 219.12-18.95L219.12-18.95Q220.52-20.75 221.02-20.75 221.52-20.75 222.27-20.35 223.02-19.95 223.02-19.4 223.02-18.85 220.62-16.15L220.62-16.15Q221.92-16.1 224.02-16.1ZM238.87-10.6L238.87-10.6Q238.87-8.85 235.52-4.75L235.52-4.75Q231.57 0.1 228.77 0.1L228.77 0.1 227.97 0.1Q226.67 0.1 225.92-1.25L225.92-1.25Q225.32-2.2 225.32-3.35L225.32-3.35Q225.32-6.35 229.7-11.78 234.07-17.2 236.77-17.2L236.77-17.2Q239.32-17.2 239.32-14.5L239.32-14.5Q239.32-13.8 239.07-12.7L239.07-12.7Q239.12-12.55 240.02-12.55 240.92-12.55 242.77-13.5L242.77-13.5Q242.72-12.65 238.82-11.05L238.82-11.05Q238.87-10.85 238.87-10.6ZM235.62-13.2L235.62-13.2Q233.92-13.2 230.8-9.2 227.67-5.2 227.67-3.3 227.67-1.4 228.87-1.4L228.87-1.4Q231.02-1.4 234.32-5.3 237.62-9.2 237.62-10.9L237.62-10.9Q236.82-11.35 235.62-13.2ZM250.07 0.25L250.07 0.25Q246.32 0.25 246.32-3.9L246.32-3.9Q246.32-6 247.42-8.5 248.52-11 249.82-12.7L249.82-12.7Q249.57-12.65 249.17-12.65L249.17-12.65Q247.97-12.65 247.17-14.35L247.17-14.35 243.47-9.55Q240.37-5.7 239.87-5.7L239.87-5.7Q239.62-5.7 239.62-5.9L239.62-5.9Q239.62-6.4 240.47-7.35L240.47-7.35Q244.82-12.4 246.62-15.9L246.62-15.9Q247.77-20.25 249.52-20.25L249.52-20.25Q250.67-20.25 250.67-19.25 250.67-18.25 249.42-16.7L249.42-16.7 248.22-15.1Q248.22-14.05 249.77-14.05L249.77-14.05Q250.67-14.05 251.77-14.7L251.77-14.7 253.07-15.5Q253.17-15.55 253.57-15.55 253.97-15.55 254.42-15.05 254.87-14.55 254.72-14.15L254.72-14.15 251.27-9.8Q248.07-5.7 248.07-3.33 248.07-0.95 250.27-0.95L250.27-0.95Q252.57-0.95 255.92-3.4L255.92-3.4Q257.92-4.85 259.57-6.65L259.57-6.65Q261.12-8.45 261.27-8.45L261.27-8.45Q261.62-8.45 261.62-8.08 261.62-7.7 261.17-7.2L261.17-7.2 259.57-5.4Q258.22-4 256.57-2.7L256.57-2.7Q252.62 0.25 250.07 0.25ZM262.12 0.65L262.12 0.65Q261.57 0.65 261.12 0.5L261.12 0.5Q257.92-0.4 257.92-3.1L257.92-3.1Q257.92-6.6 262.32-11.2 266.72-15.8 270.22-15.8L270.22-15.8Q271.37-15.8 272.09-15.18 272.82-14.55 272.82-13.65L272.82-13.65Q272.82-10.85 268.59-8.3 264.37-5.75 261.72-5.75L261.72-5.75Q261.32-5.75 261.02-5.85L261.02-5.85Q260.27-4.5 260.27-3L260.27-3Q260.27-0.4 262.74-0.4 265.22-0.4 269.17-3.75L269.17-3.75Q272.22-6.2 274.37-8.95L274.37-8.95Q274.82-9.55 275.14-9.55 275.47-9.55 275.47-9.25 275.47-8.95 275.07-8.4L275.07-8.4Q272.37-4.85 268.57-2.1 264.77 0.65 262.12 0.65ZM271.57-13.75L271.57-13.75Q271.57-14.35 270.29-14.35 269.02-14.35 266.67-12.4L266.67-12.4Q263.52-9.8 261.77-6.95L261.77-6.95Q262.07-6.85 262.42-6.85L262.42-6.85Q264.32-6.85 267.49-8.88 270.67-10.9 271.47-13.3L271.47-13.3Q271.57-13.55 271.57-13.75Z" opacity="1" transform="matrix(1,0,0,1,0,0)" fill="#ff0000" class="wordmark-text-0" data-fill-palette-color="primary" id="text-0"></path></svg></g></svg></g><g transform="matrix(1,0,0,1,0,39.24548641082793)"><svg viewBox="0 0 244.43135999999998 19.621536703157137" height="19.621536703157137" width="244.43135999999998"><g transform="matrix(1,0,0,1,0,0)"><svg width="244.43135999999998" viewBox="1.7 -38.75 507.01 40.7" height="19.621536703157137" data-palette-color="#ca3433"><path d="M6.75-29.7Q6.75-31.25 7.73-32.45 8.7-33.65 10.45-33.65L10.45-33.65Q12.3-33.65 13.68-32.5 15.05-31.35 15.05-29.9L15.05-29.9Q15.05-28.45 13.65-27.4 12.25-26.35 10.4-26.35L10.4-26.35Q8.6-26.35 7.68-27.28 6.75-28.2 6.75-29.7L6.75-29.7ZM12-20.85Q9.35-10.05 7.95-4.6L7.95-4.6Q7.75-3.8 7.75-2.85L7.75-2.85 7.8-1.45Q7.8-0.6 7.28-0.25 6.75 0.1 5.05 0.15L5.05 0.15Q3.4 0.15 2.55-0.2 1.7-0.55 1.7-1.7L1.7-1.7Q1.7-2.25 2.98-7.55 4.25-12.85 6.45-21.35L6.45-21.35 5.3-22.85Q5.15-23 5.15-23.2L5.15-23.2Q5.15-23.7 6.25-24.03 7.35-24.35 9.3-24.35L9.3-24.35Q11-24.35 11.48-23.38 11.95-22.4 12-20.85L12-20.85ZM35.88-22.85Q35.73-23 35.73-23.2L35.73-23.2Q35.73-23.7 36.83-24.03 37.93-24.35 39.88-24.35L39.88-24.35Q41.68-24.35 42.53-23.43 43.38-22.5 43.53-21.2L43.53-21.2 42.63-17.95Q43.68-19.4 45.58-20.73 47.48-22.05 49.43-22.85 51.38-23.65 52.63-23.65L52.63-23.65Q55.28-23.65 56.48-22.68 57.68-21.7 57.68-19.6L57.68-19.6Q54.73-11.9 53.78-3L53.78-3 54.48-0.55Q53.88 0.6 52.81 1.28 51.73 1.95 49.68 1.95L49.68 1.95Q48.48 1.95 47.93 1.15 47.38 0.35 47.38-0.85L47.38-0.85Q47.38-4.2 48.36-8.22 49.33-12.25 50.63-16.45L50.63-16.45Q51.13-18.05 51.13-18.1L51.13-18.1Q51.13-18.8 50.33-18.8L50.33-18.8Q49.23-18.8 47.01-17.25 44.78-15.7 42.43-12.03 40.08-8.35 38.63-2.4L38.63-2.4Q38.53-2.1 38.38-1.3 38.23-0.5 37.58-0.18 36.93 0.15 35.48 0.15L35.48 0.15Q33.83 0.15 33.06-0.2 32.28-0.55 32.28-1.7L32.28-1.7Q32.43-2.4 32.73-3.4L32.73-3.4Q35.63-15.05 37.18-21.35L37.18-21.35 35.88-22.85ZM94.12-19.35Q93.52-19.65 92.62-19.65L92.62-19.65Q90.37-19.65 88.12-18.75 85.87-17.85 85.87-16.45L85.87-16.45Q85.87-15.45 86.77-14.85 87.67-14.25 89.62-13.5L89.62-13.5Q91.72-12.65 93.02-11.9 94.32-11.15 95.29-9.73 96.27-8.3 96.27-6.1L96.27-6.1Q96.27-2.5 93.29-0.58 90.32 1.35 85.32 1.35L85.32 1.35Q82.87 1.35 80.77 0.6 78.67-0.15 77.44-1.33 76.22-2.5 76.12-3.65L76.12-3.65Q76.12-4.85 77.17-5.63 78.22-6.4 80.12-6.65L80.12-6.65Q80.17-5.65 81.17-4.78 82.17-3.9 83.54-3.38 84.92-2.85 85.92-2.85L85.92-2.85Q87.62-2.85 89.02-3.78 90.42-4.7 90.42-5.95L90.42-5.95Q90.42-8.25 85.97-9.6L85.97-9.6Q83.12-10.45 81.59-12.3 80.07-14.15 80.07-16.2L80.07-16.2Q80.07-20.25 83.74-22.03 87.42-23.8 93.12-23.8L93.12-23.8Q96.32-23.8 98.07-23.05 99.82-22.3 99.82-20.45L99.82-20.45Q99.82-19.2 98.89-18.25 97.97-17.3 96.27-17.3L96.27-17.3Q94.77-17.3 94.34-17.53 93.92-17.75 93.87-18.3L93.87-18.3Q93.87-18.8 94.12-19.35L94.12-19.35ZM129.05-18.1L125.9-5.5Q125.9-4.35 126.5-3.68 127.1-3 128.2-3L128.2-3Q129.7-3 130.68-3.88 131.65-4.75 132.75-6.35L132.75-6.35Q133.55-7.5 134.05-8 134.55-8.5 135.2-8.5L135.2-8.5Q136.5-8.5 137.05-8.18 137.6-7.85 137.6-6.85L137.6-6.85Q137.6-6.4 137.5-5.78 137.4-5.15 137.25-4.85L137.25-4.85Q136.05-2.3 133.33-0.45 130.6 1.4 127.15 1.4L127.15 1.4Q123.7 1.4 121.95-0.28 120.2-1.95 120.2-5.05L120.2-5.05Q120.2-5.5 120.65-7.4 121.1-9.3 121.8-11.95L121.8-11.95 123.2-17.65 120.15-17.4Q119.55-17.4 119.25-17.85 118.95-18.3 118.95-18.95L118.95-18.95Q118.95-20.2 119.85-21.45L119.85-21.45Q119.95-21.6 120.85-21.75 121.75-21.9 123.05-22.05L123.05-22.05 124.4-22.2 126.1-29.5Q126.6-30.8 127.63-31.53 128.65-32.25 129.55-32.25L129.55-32.25Q130.55-32.25 131.25-31.65 131.95-31.05 132-30.25L132-30.25 130.2-22.75Q132.15-23 133.83-23.18 135.5-23.35 136.45-23.35L136.45-23.35Q138.35-23.35 138.35-21.15L138.35-21.15Q138.35-20.3 137.63-19.63 136.9-18.95 136.05-18.8L136.05-18.8 129.05-18.1ZM177.44-2.6Q177.54-1.3 177.79-0.25L177.79-0.25Q177.69 0.05 176.91 0.35 176.14 0.65 175.59 0.65L175.59 0.65Q173.79 0.65 173.01 0.13 172.24-0.4 172.24-1.45L172.24-1.45Q172.24-2.45 172.44-3.45L172.44-3.45Q171.34-1.95 169.21-0.98 167.09 0 165.79 0L165.79 0Q162.44 0 160.21-1.95 157.99-3.9 157.99-8.2L157.99-8.2Q157.99-12.25 159.91-15.83 161.84-19.4 165.24-21.58 168.64-23.75 172.79-23.75L172.79-23.75Q173.59-23.75 174.89-23.33 176.19-22.9 177.51-21.88 178.84-20.85 179.74-19.25L179.74-19.25Q180.14-19.25 180.69-18.85 181.24-18.45 181.24-18.05L181.24-18.05Q181.24-17.6 181.09-17.15L181.09-17.15 177.44-2.6ZM175.19-16.6Q174.89-17.7 174.01-18.45 173.14-19.2 172.44-19.2L172.44-19.2Q170.14-19.2 168.11-17.57 166.09-15.95 164.84-13.55 163.59-11.15 163.59-9L163.59-9Q163.59-6.9 164.09-5.55 164.59-4.2 166.04-4.2L166.04-4.2Q167.29-4.2 168.91-4.95 170.54-5.7 171.81-6.98 173.09-8.25 173.49-9.65L173.49-9.65 175.19-16.6ZM204.52-22.85Q204.37-23 204.37-23.2L204.37-23.2Q204.37-23.7 205.47-24.03 206.57-24.35 208.52-24.35L208.52-24.35Q210.32-24.35 211.17-23.43 212.02-22.5 212.17-21.2L212.17-21.2 211.27-17.95Q212.32-19.4 214.22-20.73 216.12-22.05 218.07-22.85 220.02-23.65 221.27-23.65L221.27-23.65Q223.92-23.65 225.12-22.68 226.32-21.7 226.32-19.6L226.32-19.6Q223.37-11.9 222.42-3L222.42-3 223.12-0.55Q222.52 0.6 221.45 1.28 220.37 1.95 218.32 1.95L218.32 1.95Q217.12 1.95 216.57 1.15 216.02 0.35 216.02-0.85L216.02-0.85Q216.02-4.2 217-8.22 217.97-12.25 219.27-16.45L219.27-16.45Q219.77-18.05 219.77-18.1L219.77-18.1Q219.77-18.8 218.97-18.8L218.97-18.8Q217.87-18.8 215.65-17.25 213.42-15.7 211.07-12.03 208.72-8.35 207.27-2.4L207.27-2.4Q207.17-2.1 207.02-1.3 206.87-0.5 206.22-0.18 205.57 0.15 204.12 0.15L204.12 0.15Q202.47 0.15 201.7-0.2 200.92-0.55 200.92-1.7L200.92-1.7Q201.07-2.4 201.37-3.4L201.37-3.4Q204.27-15.05 205.82-21.35L205.82-21.35 204.52-22.85ZM256.76-18.1L253.61-5.5Q253.61-4.35 254.21-3.68 254.81-3 255.91-3L255.91-3Q257.41-3 258.38-3.88 259.36-4.75 260.46-6.35L260.46-6.35Q261.26-7.5 261.76-8 262.26-8.5 262.91-8.5L262.91-8.5Q264.21-8.5 264.76-8.18 265.31-7.85 265.31-6.85L265.31-6.85Q265.31-6.4 265.21-5.78 265.11-5.15 264.96-4.85L264.96-4.85Q263.76-2.3 261.03-0.45 258.31 1.4 254.86 1.4L254.86 1.4Q251.41 1.4 249.66-0.28 247.91-1.95 247.91-5.05L247.91-5.05Q247.91-5.5 248.36-7.4 248.81-9.3 249.51-11.95L249.51-11.95 250.91-17.65 247.86-17.4Q247.26-17.4 246.96-17.85 246.66-18.3 246.66-18.95L246.66-18.95Q246.66-20.2 247.56-21.45L247.56-21.45Q247.66-21.6 248.56-21.75 249.46-21.9 250.76-22.05L250.76-22.05 252.11-22.2 253.81-29.5Q254.31-30.8 255.33-31.53 256.36-32.25 257.26-32.25L257.26-32.25Q258.26-32.25 258.96-31.65 259.66-31.05 259.71-30.25L259.71-30.25 257.91-22.75Q259.86-23 261.53-23.18 263.21-23.35 264.16-23.35L264.16-23.35Q266.06-23.35 266.06-21.15L266.06-21.15Q266.06-20.3 265.33-19.63 264.61-18.95 263.76-18.8L263.76-18.8 256.76-18.1ZM326.57 1.05Q322.17 1.05 319.72-1.95 317.27-4.95 317.27-9.6L317.27-9.6Q317.27-13.5 319.15-16.95 321.02-20.4 324.27-22.5 327.52-24.6 331.42-24.6L331.42-24.6Q335.27-24.6 337.75-22.08 340.22-19.55 340.22-14.65L340.22-14.65Q340.22-11.2 338.32-7.5 336.42-3.8 333.25-1.38 330.07 1.05 326.57 1.05L326.57 1.05ZM327.32-2.95Q328.92-2.95 330.55-4.95 332.17-6.95 333.22-10 334.27-13.05 334.27-15.95L334.27-15.95Q334.27-20.4 330.57-20.4L330.57-20.4Q328.52-20.4 326.82-18.45 325.12-16.5 324.12-13.63 323.12-10.75 323.12-8.25L323.12-8.25Q323.12-6.8 323.77-5.58 324.42-4.35 325.4-3.65 326.37-2.95 327.32-2.95L327.32-2.95ZM366.11-1.9Q366.06-1.6 365.88-0.73 365.71 0.15 365.03 0.5 364.36 0.85 362.91 0.85L362.91 0.85Q361.26 0.85 360.51 0.5 359.76 0.15 359.76-1L359.76-1 362.16-10.55Q364.16-18.8 364.81-21.05L364.81-21.05 363.56-22.55Q363.41-22.7 363.41-22.9L363.41-22.9Q363.41-23.4 364.51-23.73 365.61-24.05 367.56-24.05L367.56-24.05Q369.31-24.05 369.91-23.08 370.51-22.1 370.66-20.55L370.66-20.55 370.31-19.25Q371.91-21.2 374.03-22.48 376.16-23.75 377.81-23.75L377.81-23.75Q379.96-23.75 381.16-23 382.36-22.25 382.36-21.05L382.36-21.05Q382.36-20 381.63-18.88 380.91-17.75 379.81-16.98 378.71-16.2 377.66-16.1L377.66-16.1Q376.66-16.1 376.31-16.35 375.96-16.6 375.96-17.1L375.96-17.1 376.26-18.75Q372.26-17.65 369.01-13.45L369.01-13.45 366.11-1.9ZM420.84-37.05Q421.04-37.8 422.02-38.27 422.99-38.75 424.09-38.75L424.09-38.75Q424.99-38.75 426.04-38.35 427.09-37.95 427.09-37.2L427.09-37.2 423.94-24.9Q419.79-8.75 419.09-5.2L419.09-5.2Q418.79-3.7 418.79-2.9L418.79-2.9Q418.79-1.55 419.09-0.25L419.09-0.25Q418.99 0.05 418.32 0.35 417.64 0.65 417.09 0.65L417.09 0.65Q416.09 0.65 414.89 0.4 413.69 0.15 413.39-0.15L413.39-0.15Q412.94-0.55 412.94-1.75L412.94-1.75Q412.94-2.65 413.14-3.45L413.14-3.45Q412.09-1.95 409.97-0.98 407.84 0 406.54 0L406.54 0Q398.89 0 398.89-8.25L398.89-8.25Q398.89-11.85 400.52-15.45 402.14-19.05 405.17-21.4 408.19-23.75 412.19-23.75L412.19-23.75Q413.29-23.75 414.64-22.88 415.99-22 416.84-20.9L416.84-20.9Q417.94-25.55 418.79-28.65L418.79-28.65Q419.19-30.3 419.72-32.43 420.24-34.55 420.84-37.05L420.84-37.05ZM415.74-16.25Q415.44-17.35 414.32-18.28 413.19-19.2 412.49-19.2L412.49-19.2Q410.19-19.2 408.19-17.7 406.19-16.2 405.02-13.8 403.84-11.4 403.84-8.85L403.84-8.85Q403.84-6.95 404.54-5.45 405.24-3.95 406.69-3.95L406.69-3.95Q407.94-3.95 409.62-4.78 411.29-5.6 412.59-6.93 413.89-8.25 414.19-9.65L414.19-9.65 415.74-16.25ZM452.13 1.05Q447.23 1.05 444.98-0.9 442.73-2.85 442.73-6.1L442.73-6.1Q442.73-10.85 445.1-14.9 447.48-18.95 451.45-21.33 455.43-23.7 460.03-23.7L460.03-23.7Q462.83-23.7 464.73-22.13 466.63-20.55 466.63-17.5L466.63-17.5Q466.63-15.75 465.5-14.63 464.38-13.5 462.28-12.63 460.18-11.75 455.48-10.15L455.48-10.15Q451.23-8.75 448.58-7.8L448.58-7.8Q448.38-7.05 448.38-6.25L448.38-6.25Q448.38-4.85 449.55-4.1 450.73-3.35 452.88-3.35L452.88-3.35Q454.23-3.35 455.98-3.9 457.73-4.45 458.18-5.3L458.18-5.3Q459.88-8.4 461.28-8.4L461.28-8.4Q463.33-8.4 464.05-7.63 464.78-6.85 464.83-5.9L464.83-5.9Q464.23-4.3 462.48-2.68 460.73-1.05 458.03 0 455.33 1.05 452.13 1.05L452.13 1.05ZM449.98-12.4Q454.93-14 458.13-15.38 461.33-16.75 461.33-18.1L461.33-18.1Q461.33-18.7 460.68-19.07 460.03-19.45 459.28-19.45L459.28-19.45Q457.78-19.45 455.85-18.3 453.93-17.15 452.28-15.5 450.63-13.85 449.98-12.4L449.98-12.4ZM492.46-1.9Q492.41-1.6 492.24-0.73 492.06 0.15 491.39 0.5 490.71 0.85 489.26 0.85L489.26 0.85Q487.61 0.85 486.86 0.5 486.11 0.15 486.11-1L486.11-1 488.51-10.55Q490.51-18.8 491.16-21.05L491.16-21.05 489.91-22.55Q489.76-22.7 489.76-22.9L489.76-22.9Q489.76-23.4 490.86-23.73 491.96-24.05 493.91-24.05L493.91-24.05Q495.66-24.05 496.26-23.08 496.86-22.1 497.01-20.55L497.01-20.55 496.66-19.25Q498.26-21.2 500.39-22.48 502.51-23.75 504.16-23.75L504.16-23.75Q506.31-23.75 507.51-23 508.71-22.25 508.71-21.05L508.71-21.05Q508.71-20 507.99-18.88 507.26-17.75 506.16-16.98 505.06-16.2 504.01-16.1L504.01-16.1Q503.01-16.1 502.66-16.35 502.31-16.6 502.31-17.1L502.31-17.1 502.61-18.75Q498.61-17.65 495.36-13.45L495.36-13.45 492.46-1.9Z" opacity="1" transform="matrix(1,0,0,1,0,0)" fill="#ca3433" class="slogan-text-1" data-fill-palette-color="secondary" id="text-1"></path></svg></g></svg></g></svg></g></svg></g></svg></g></svg></g></svg></g><g><path d="M245.816 0c68.262 0 123.6 55.338 123.6 123.6 0 68.262-55.338 123.6-123.6 123.6-56.768 0-104.597-38.271-119.096-90.419l1.487 0c14.458 51.348 61.638 88.987 117.609 88.987 67.472 0 122.168-54.697 122.168-122.168 0-67.472-54.697-122.168-122.168-122.168-55.971 0-103.151 37.639-117.609 88.987l-1.487 0c14.498-52.148 62.327-90.419 119.096-90.419z" fill="#ff0000" stroke="transparent" data-fill-palette-color="tertiary"></path></g></svg></g><defs></defs></svg><rect width="395.52" height="247.2" fill="none" stroke="none" visibility="hidden"></rect></g></svg></g></svg>